<svg width="3500" height="3500" viewBox="0 0 3500 3500" fill="none" xmlns="http://www.w3.org/2000/svg">
<path d="M2408.67 788.779L975.144 1308.67L1114.86 815.445L2524.89 299.013L2408.67 788.779Z" fill="url(#paint0_linear_101_2)"/>
<path d="M926.969 1960.5L1466.33 1755.91L2073.89 2158.88L1509.73 2345.99L926.969 1960.5Z" fill="#D9D9D9"/>
<path d="M1069.56 1483.13L2073.89 2158.88L1509.73 2344.87L926.973 1960.5L1069.56 1483.13Z" fill="url(#paint1_linear_101_2)"/>
<path d="M1652.32 1873.7L926.973 1960.5L1069.56 1483.13L1652.32 1873.7Z" fill="#D6A91E"/>
<path d="M1211.48 3197.6C1199.79 3197.6 1189.14 3194.88 1179.54 3189.44C1169.93 3183.89 1162.41 3176.31 1156.97 3166.7C1151.53 3156.98 1148.81 3146.22 1148.81 3134.41C1148.81 3122.61 1151.53 3111.91 1156.97 3102.3C1162.41 3092.58 1169.93 3085 1179.54 3079.56C1189.14 3074.01 1199.79 3071.23 1211.48 3071.23C1220.5 3071.23 1228.72 3072.91 1236.13 3076.26C1243.65 3079.62 1249.78 3084.07 1254.53 3089.63L1246.54 3097.44C1242.38 3092.58 1237.34 3088.76 1231.44 3085.98C1225.65 3083.21 1219 3081.82 1211.48 3081.82C1202.1 3081.82 1193.54 3084.02 1185.79 3088.41C1178.03 3092.81 1171.84 3099 1167.21 3106.99C1162.58 3114.86 1160.27 3124 1160.27 3134.41C1160.27 3144.83 1162.58 3154.03 1167.21 3162.02C1171.84 3169.88 1178.03 3176.02 1185.79 3180.42C1193.54 3184.81 1202.1 3187.01 1211.48 3187.01C1227.1 3187.01 1239.95 3181.11 1250.01 3169.31L1258.17 3177.29C1253.43 3183.08 1246.89 3187.94 1238.56 3191.87C1230.34 3195.69 1221.31 3197.6 1211.48 3197.6ZM1311.16 3197.6C1302.95 3197.6 1295.54 3195.63 1288.94 3191.7C1282.46 3187.65 1277.37 3182.15 1273.67 3175.21C1270.08 3168.26 1268.29 3160.63 1268.29 3152.29C1268.29 3143.96 1270.08 3136.32 1273.67 3129.38C1277.37 3122.44 1282.46 3117 1288.94 3113.06C1295.54 3109.01 1302.95 3106.99 1311.16 3106.99C1319.38 3106.99 1326.73 3109.01 1333.21 3113.06C1339.8 3117 1344.9 3122.44 1348.48 3129.38C1352.19 3136.32 1354.04 3143.96 1354.04 3152.29C1354.04 3160.63 1352.19 3168.26 1348.48 3175.21C1344.9 3182.15 1339.8 3187.65 1333.21 3191.7C1326.73 3195.63 1319.38 3197.6 1311.16 3197.6ZM1311.16 3187.71C1316.72 3187.71 1321.87 3186.26 1326.61 3183.37C1331.47 3180.47 1335.35 3176.37 1338.24 3171.04C1341.14 3165.72 1342.58 3159.47 1342.58 3152.29C1342.58 3145.12 1341.14 3138.87 1338.24 3133.55C1335.35 3128.22 1331.47 3124.12 1326.61 3121.22C1321.87 3118.33 1316.72 3116.88 1311.16 3116.88C1305.61 3116.88 1300.4 3118.33 1295.54 3121.22C1290.68 3124.12 1286.8 3128.22 1283.91 3133.55C1281.02 3138.87 1279.57 3145.12 1279.57 3152.29C1279.57 3159.47 1281.02 3165.72 1283.91 3171.04C1286.8 3176.37 1290.68 3180.47 1295.54 3183.37C1300.4 3186.26 1305.61 3187.71 1311.16 3187.71ZM1406.36 3197.6C1398.84 3197.6 1392.07 3195.69 1386.05 3191.87C1380.03 3187.94 1375.29 3182.56 1371.81 3175.73C1368.34 3168.9 1366.61 3161.09 1366.61 3152.29C1366.61 3143.61 1368.34 3135.86 1371.81 3129.03C1375.29 3122.09 1380.03 3116.71 1386.05 3112.89C1392.07 3108.96 1398.84 3106.99 1406.36 3106.99C1412.61 3106.99 1418.22 3108.43 1423.2 3111.33C1428.29 3114.22 1432.22 3118.1 1435 3122.96H1438.13L1437.43 3108.9V3074.01H1448.71V3194.82H1437.95V3181.8H1435C1432.22 3186.55 1428.29 3190.37 1423.2 3193.26C1418.22 3196.15 1412.61 3197.6 1406.36 3197.6ZM1407.92 3187.71C1413.24 3187.71 1418.22 3186.26 1422.85 3183.37C1427.48 3180.36 1431.12 3176.19 1433.79 3170.87C1436.56 3165.54 1437.95 3159.35 1437.95 3152.29C1437.95 3145.23 1436.56 3139.04 1433.79 3133.72C1431.12 3128.4 1427.48 3124.29 1422.85 3121.4C1418.22 3118.39 1413.24 3116.88 1407.92 3116.88C1402.71 3116.88 1397.74 3118.39 1392.99 3121.4C1388.36 3124.29 1384.66 3128.45 1381.88 3133.89C1379.11 3139.33 1377.72 3145.47 1377.72 3152.29C1377.72 3159.12 1379.11 3165.26 1381.88 3170.69C1384.66 3176.13 1388.36 3180.36 1392.99 3183.37C1397.74 3186.26 1402.71 3187.71 1407.92 3187.71ZM1506.59 3197.6C1498.6 3197.6 1491.43 3195.69 1485.06 3191.87C1478.81 3187.94 1473.89 3182.56 1470.31 3175.73C1466.83 3168.9 1465.1 3161.15 1465.1 3152.47C1465.1 3144.25 1466.72 3136.67 1469.96 3129.73C1473.31 3122.78 1478.06 3117.29 1484.19 3113.24C1490.33 3109.07 1497.39 3106.99 1505.37 3106.99C1513.59 3106.99 1520.65 3108.84 1526.55 3112.54C1532.57 3116.25 1537.14 3121.4 1540.26 3127.99C1543.5 3134.47 1545.12 3141.99 1545.12 3150.56C1545.12 3151.83 1545.06 3152.76 1544.95 3153.34H1476.21C1476.67 3161.55 1478.41 3168.15 1481.42 3173.12C1484.42 3177.99 1488.19 3181.63 1492.7 3184.06C1497.33 3186.49 1502.13 3187.71 1507.11 3187.71C1518.91 3187.71 1527.59 3182.5 1533.14 3172.08L1542.52 3176.77C1539.63 3182.56 1535.05 3187.47 1528.8 3191.53C1522.67 3195.58 1515.27 3197.6 1506.59 3197.6ZM1533.14 3144.66C1532.8 3139.45 1531.64 3134.88 1529.67 3130.94C1527.82 3127.01 1524.81 3123.71 1520.65 3121.05C1516.6 3118.27 1511.5 3116.88 1505.37 3116.88C1498.2 3116.88 1492.12 3119.25 1487.14 3124C1482.17 3128.74 1478.75 3135.63 1476.9 3144.66H1533.14ZM1634.11 3196.21C1630.75 3196.21 1627.63 3195.69 1624.73 3194.65C1621.96 3193.49 1619.64 3192.05 1617.79 3190.31C1613.62 3186.26 1611.54 3180.59 1611.54 3173.3V3119.66H1596.61V3109.77H1611.54V3084.77H1623V3109.77H1644.18V3119.66H1623V3169.65C1623 3174.98 1623.98 3178.91 1625.95 3181.46C1628.38 3184.47 1631.91 3185.97 1636.54 3185.97C1640.24 3185.97 1642.84 3185.45 1644.35 3184.41V3194.65C1643.42 3195 1642.15 3195.34 1640.53 3195.69C1638.91 3196.04 1636.77 3196.21 1634.11 3196.21ZM1662.53 3074.01H1673.99V3108.9L1673.12 3122.78H1676.24C1678.79 3117.92 1682.49 3114.1 1687.35 3111.33C1692.33 3108.43 1697.71 3106.99 1703.5 3106.99C1713.68 3106.99 1721.38 3110 1726.58 3116.01C1731.79 3121.92 1734.39 3129.84 1734.39 3139.8V3194.82H1722.94V3142.05C1722.94 3133.6 1720.8 3127.3 1716.51 3123.13C1712.35 3118.97 1706.91 3116.88 1700.2 3116.88C1695.34 3116.88 1690.88 3118.39 1686.83 3121.4C1682.9 3124.29 1679.77 3128.11 1677.46 3132.85C1675.14 3137.48 1673.99 3142.28 1673.99 3147.26V3194.82H1662.53V3074.01ZM1792.4 3197.6C1784.41 3197.6 1777.24 3195.69 1770.87 3191.87C1764.62 3187.94 1759.7 3182.56 1756.12 3175.73C1752.64 3168.9 1750.91 3161.15 1750.91 3152.47C1750.91 3144.25 1752.53 3136.67 1755.77 3129.73C1759.12 3122.78 1763.87 3117.29 1770 3113.24C1776.14 3109.07 1783.2 3106.99 1791.18 3106.99C1799.4 3106.99 1806.46 3108.84 1812.36 3112.54C1818.38 3116.25 1822.95 3121.4 1826.07 3127.99C1829.31 3134.47 1830.93 3141.99 1830.93 3150.56C1830.93 3151.83 1830.87 3152.76 1830.76 3153.34H1762.02C1762.48 3161.55 1764.22 3168.15 1767.23 3173.12C1770.23 3177.99 1774 3181.63 1778.51 3184.06C1783.14 3186.49 1787.94 3187.71 1792.92 3187.71C1804.72 3187.71 1813.4 3182.5 1818.95 3172.08L1828.33 3176.77C1825.44 3182.56 1820.86 3187.47 1814.61 3191.53C1808.48 3195.58 1801.07 3197.6 1792.4 3197.6ZM1818.95 3144.66C1818.61 3139.45 1817.45 3134.88 1815.48 3130.94C1813.63 3127.01 1810.62 3123.71 1806.46 3121.05C1802.41 3118.27 1797.31 3116.88 1791.18 3116.88C1784.01 3116.88 1777.93 3119.25 1772.95 3124C1767.98 3128.74 1764.56 3135.63 1762.71 3144.66H1818.95ZM1923.56 3197.6C1916.04 3197.6 1909.27 3195.69 1903.25 3191.87C1897.24 3187.94 1892.49 3182.56 1889.02 3175.73C1885.55 3168.9 1883.81 3161.09 1883.81 3152.29C1883.81 3143.61 1885.55 3135.86 1889.02 3129.03C1892.49 3122.09 1897.24 3116.71 1903.25 3112.89C1909.27 3108.96 1916.04 3106.99 1923.56 3106.99C1929.81 3106.99 1935.42 3108.43 1940.4 3111.33C1945.49 3114.22 1949.43 3118.1 1952.2 3122.96H1955.33L1954.64 3108.9V3074.01H1965.92V3194.82H1955.16V3181.8H1952.2C1949.43 3186.55 1945.49 3190.37 1940.4 3193.26C1935.42 3196.15 1929.81 3197.6 1923.56 3197.6ZM1925.13 3187.71C1930.45 3187.71 1935.42 3186.26 1940.05 3183.37C1944.68 3180.36 1948.33 3176.19 1950.99 3170.87C1953.77 3165.54 1955.16 3159.35 1955.16 3152.29C1955.16 3145.23 1953.77 3139.04 1950.99 3133.72C1948.33 3128.4 1944.68 3124.29 1940.05 3121.4C1935.42 3118.39 1930.45 3116.88 1925.13 3116.88C1919.92 3116.88 1914.94 3118.39 1910.2 3121.4C1905.57 3124.29 1901.86 3128.45 1899.09 3133.89C1896.31 3139.33 1894.92 3145.47 1894.92 3152.29C1894.92 3159.12 1896.31 3165.26 1899.09 3170.69C1901.86 3176.13 1905.57 3180.36 1910.2 3183.37C1914.94 3186.26 1919.92 3187.71 1925.13 3187.71ZM1987.84 3109.77H1998.6V3124H2001.72C2003.58 3118.79 2006.76 3114.68 2011.27 3111.67C2015.9 3108.67 2020.76 3107.16 2025.85 3107.16C2029.56 3107.16 2032.45 3107.57 2034.53 3108.38V3120.53C2032.1 3119.25 2028.51 3118.62 2023.77 3118.62C2019.37 3118.62 2015.26 3119.95 2011.44 3122.61C2007.74 3125.16 2004.79 3128.63 2002.59 3133.03C2000.39 3137.42 1999.29 3142.11 1999.29 3147.09V3194.82H1987.84V3109.77ZM2080.24 3197.6C2072.25 3197.6 2065.08 3195.69 2058.71 3191.87C2052.47 3187.94 2047.55 3182.56 2043.96 3175.73C2040.49 3168.9 2038.75 3161.15 2038.75 3152.47C2038.75 3144.25 2040.37 3136.67 2043.61 3129.73C2046.97 3122.78 2051.71 3117.29 2057.85 3113.24C2063.98 3109.07 2071.04 3106.99 2079.02 3106.99C2087.24 3106.99 2094.3 3108.84 2100.2 3112.54C2106.22 3116.25 2110.79 3121.4 2113.92 3127.99C2117.16 3134.47 2118.78 3141.99 2118.78 3150.56C2118.78 3151.83 2118.72 3152.76 2118.6 3153.34H2049.86C2050.32 3161.55 2052.06 3168.15 2055.07 3173.12C2058.08 3177.99 2061.84 3181.63 2066.35 3184.06C2070.98 3186.49 2075.78 3187.71 2080.76 3187.71C2092.56 3187.71 2101.24 3182.5 2106.8 3172.08L2116.17 3176.77C2113.28 3182.56 2108.71 3187.47 2102.46 3191.53C2096.33 3195.58 2088.92 3197.6 2080.24 3197.6ZM2106.8 3144.66C2106.45 3139.45 2105.29 3134.88 2103.33 3130.94C2101.48 3127.01 2098.47 3123.71 2094.3 3121.05C2090.25 3118.27 2085.16 3116.88 2079.02 3116.88C2071.85 3116.88 2065.77 3119.25 2060.8 3124C2055.82 3128.74 2052.41 3135.63 2050.56 3144.66H2106.8ZM2162.88 3197.6C2156.75 3197.6 2151.31 3196.39 2146.57 3193.96C2141.82 3191.53 2138.18 3188.23 2135.63 3184.06C2133.08 3179.89 2131.81 3175.15 2131.81 3169.83C2131.81 3161.03 2135.05 3154.15 2141.53 3149.17C2148.13 3144.19 2156.52 3141.71 2166.7 3141.71C2171.79 3141.71 2176.48 3142.28 2180.76 3143.44C2185.16 3144.48 2189.21 3146.22 2192.91 3148.65V3140.32C2192.91 3133.14 2190.48 3127.41 2185.62 3123.13C2180.88 3118.85 2174.86 3116.71 2167.57 3116.71C2162.71 3116.71 2158.08 3117.87 2153.68 3120.18C2149.28 3122.38 2146.1 3125.1 2144.13 3128.34L2135.8 3121.92C2138.46 3117.75 2142.63 3114.22 2148.3 3111.33C2154.09 3108.43 2160.51 3106.99 2167.57 3106.99C2178.91 3106.99 2187.76 3110 2194.13 3116.01C2200.49 3121.92 2203.68 3130.07 2203.68 3140.49V3194.82H2192.91V3182.15H2189.96C2187.3 3186.78 2183.6 3190.54 2178.85 3193.43C2174.11 3196.21 2168.78 3197.6 2162.88 3197.6ZM2164.27 3188.05C2169.36 3188.05 2174.05 3186.72 2178.33 3184.06C2182.73 3181.28 2186.26 3177.64 2188.92 3173.12C2191.58 3168.61 2192.91 3163.35 2192.91 3157.33C2189.56 3155.01 2185.85 3153.28 2181.8 3152.12C2177.75 3150.85 2173.47 3150.21 2168.96 3150.21C2160.63 3150.21 2154.32 3152.06 2150.04 3155.77C2145.76 3159.35 2143.61 3164.1 2143.61 3170C2143.61 3175.44 2145.52 3179.84 2149.34 3183.19C2153.28 3186.43 2158.25 3188.05 2164.27 3188.05ZM2224.15 3109.77H2234.91V3122.78H2237.86C2240.52 3117.92 2244.23 3114.1 2248.97 3111.33C2253.71 3108.43 2258.69 3106.99 2263.9 3106.99C2270.03 3106.99 2275.3 3108.49 2279.69 3111.5C2284.09 3114.39 2287.62 3119.2 2290.28 3125.91C2294.1 3119.2 2298.44 3114.39 2303.3 3111.5C2308.16 3108.49 2313.78 3106.99 2320.14 3106.99C2329.63 3106.99 2336.75 3109.94 2341.49 3115.84C2346.24 3121.63 2348.61 3129.61 2348.61 3139.8V3194.82H2337.33V3142.05C2337.33 3133.37 2335.53 3127.01 2331.94 3122.96C2328.36 3118.91 2323.21 3116.88 2316.5 3116.88C2311.87 3116.88 2307.64 3118.27 2303.82 3121.05C2300.12 3123.71 2297.23 3127.36 2295.14 3131.98C2293.06 3136.5 2292.02 3141.36 2292.02 3146.57V3194.82H2280.74V3142.23C2280.74 3133.43 2278.94 3127.01 2275.36 3122.96C2271.77 3118.91 2266.62 3116.88 2259.91 3116.88C2255.39 3116.88 2251.23 3118.27 2247.41 3121.05C2243.7 3123.83 2240.81 3127.53 2238.73 3132.16C2236.65 3136.79 2235.6 3141.71 2235.6 3146.91V3194.82H2224.15V3109.77Z" fill="#8F8F8F"/>
<path d="M1000.16 2641.26H1193.88V2687.68H1049.26V2781.42H1179.6V2827.84H1049.26V2960.86H1000.16V2641.26ZM1237.96 2801.95H1384.37V2843.02H1237.96V2801.95ZM1599.13 2968C1568.18 2968 1539.91 2960.71 1514.32 2946.13C1489.03 2931.55 1469.09 2911.46 1454.51 2885.87C1439.93 2860.28 1432.64 2832.01 1432.64 2801.06C1432.64 2770.11 1439.93 2741.84 1454.51 2716.25C1469.09 2690.66 1489.03 2670.57 1514.32 2655.99C1539.91 2641.41 1568.18 2634.12 1599.13 2634.12C1647.04 2634.12 1686.47 2651.52 1717.42 2686.34L1683.05 2719.82C1672.04 2706.72 1659.69 2696.9 1646 2690.36C1632.61 2683.81 1617.13 2680.54 1599.58 2680.54C1577.85 2680.54 1558.06 2685.6 1540.21 2695.71C1522.36 2705.53 1508.22 2719.67 1497.81 2738.12C1487.39 2756.27 1482.18 2777.25 1482.18 2801.06C1482.18 2824.86 1487.39 2845.99 1497.81 2864.44C1508.22 2882.59 1522.36 2896.73 1540.21 2906.85C1558.06 2916.67 1577.85 2921.58 1599.58 2921.58C1635.88 2921.58 1666.38 2906.55 1691.08 2876.49L1726.35 2910.42C1710.87 2928.57 1692.27 2942.71 1670.55 2952.82C1648.83 2962.94 1625.02 2968 1599.13 2968ZM1932.83 2952.38C1914.98 2962.79 1894.59 2968 1871.68 2968C1848.76 2968 1828.23 2962.79 1810.08 2952.38C1791.93 2941.66 1777.79 2927.08 1767.67 2908.63C1757.56 2890.18 1752.5 2869.65 1752.5 2847.03C1752.5 2824.42 1757.56 2803.88 1767.67 2785.43C1777.79 2766.98 1791.93 2752.55 1810.08 2742.14C1828.23 2731.42 1848.76 2726.07 1871.68 2726.07C1894.29 2726.07 1914.68 2731.42 1932.83 2742.14C1950.98 2752.85 1965.12 2767.43 1975.24 2785.88C1985.35 2804.33 1990.41 2824.71 1990.41 2847.03C1990.41 2869.65 1985.35 2890.18 1975.24 2908.63C1965.12 2927.08 1950.98 2941.66 1932.83 2952.38ZM1835.97 2914.44C1846.98 2920.68 1858.88 2923.81 1871.68 2923.81C1884.47 2923.81 1896.23 2920.68 1906.94 2914.44C1917.65 2908.19 1926.28 2899.26 1932.83 2887.65C1939.38 2876.05 1942.65 2862.51 1942.65 2847.03C1942.65 2831.56 1939.38 2818.02 1932.83 2806.41C1926.28 2794.81 1917.65 2785.88 1906.94 2779.63C1896.23 2773.38 1884.47 2770.26 1871.68 2770.26C1858.88 2770.26 1846.98 2773.38 1835.97 2779.63C1825.26 2785.88 1816.63 2794.81 1810.08 2806.41C1803.53 2818.02 1800.26 2831.56 1800.26 2847.03C1800.26 2862.51 1803.53 2876.05 1810.08 2887.65C1816.63 2899.26 1825.26 2908.19 1835.97 2914.44ZM2132.12 2968C2111.59 2968 2092.99 2962.94 2076.32 2952.82C2059.66 2942.41 2046.57 2927.97 2037.04 2909.52C2027.52 2891.08 2022.76 2870.24 2022.76 2847.03C2022.76 2823.82 2027.52 2803.14 2037.04 2784.99C2046.57 2766.54 2059.66 2752.11 2076.32 2741.69C2092.99 2731.27 2111.59 2726.07 2132.12 2726.07C2148.78 2726.07 2163.51 2729.79 2176.31 2737.23C2189.11 2744.37 2198.78 2753.3 2205.32 2764.01H2208L2205.32 2732.32V2641.26H2253.09V2960.86H2208V2930.5H2205.32C2198.78 2940.92 2189.11 2949.85 2176.31 2957.29C2163.51 2964.43 2148.78 2968 2132.12 2968ZM2105.34 2914.44C2116.05 2920.68 2127.36 2923.81 2139.26 2923.81C2151.16 2923.81 2162.32 2920.68 2172.74 2914.44C2183.45 2907.89 2191.93 2898.81 2198.18 2887.21C2204.73 2875.6 2208 2862.21 2208 2847.03C2208 2831.86 2204.73 2818.47 2198.18 2806.86C2191.93 2795.25 2183.45 2786.33 2172.74 2780.08C2162.32 2773.53 2151.16 2770.26 2139.26 2770.26C2127.36 2770.26 2116.05 2773.53 2105.34 2780.08C2094.92 2786.33 2086.44 2795.25 2079.89 2806.86C2073.65 2818.47 2070.52 2831.86 2070.52 2847.03C2070.52 2862.21 2073.65 2875.6 2079.89 2887.21C2086.44 2898.81 2094.92 2907.89 2105.34 2914.44ZM2411.69 2968C2389.67 2968 2369.73 2962.79 2351.88 2952.38C2334.32 2941.96 2320.49 2927.68 2310.37 2909.52C2300.55 2891.08 2295.64 2870.39 2295.64 2847.48C2295.64 2825.76 2300.4 2805.67 2309.92 2787.22C2319.74 2768.47 2333.28 2753.59 2350.54 2742.58C2367.8 2731.57 2387.29 2726.07 2409.02 2726.07C2431.93 2726.07 2451.72 2731.13 2468.38 2741.24C2485.05 2751.06 2497.69 2764.75 2506.32 2782.31C2515.25 2799.87 2519.71 2819.8 2519.71 2842.12C2519.71 2848.07 2519.42 2853.13 2518.82 2857.3H2342.95C2345.04 2879.02 2352.77 2895.84 2366.16 2907.74C2379.55 2919.35 2395.18 2925.15 2413.03 2925.15C2427.61 2925.15 2440.11 2921.87 2450.53 2915.33C2460.94 2908.48 2469.27 2899.56 2475.52 2888.55L2515.25 2907.74C2504.84 2926.49 2491 2941.22 2473.74 2951.93C2456.48 2962.64 2435.8 2968 2411.69 2968ZM2471.95 2821.14C2471.36 2812.81 2468.68 2804.48 2463.92 2796.15C2459.16 2787.82 2452.16 2780.97 2442.94 2775.61C2434.01 2769.96 2422.85 2767.13 2409.46 2767.13C2393.39 2767.13 2379.7 2772.04 2368.4 2781.86C2357.38 2791.68 2349.8 2804.78 2345.63 2821.14H2471.95Z" fill="#374141"/>
<path d="M2166.89 1514.13L2315.68 1011.96L1069.56 1483.13L926.973 1960.5L2166.89 1514.13Z" fill="url(#paint2_linear_101_2)"/>
<path d="M2235.08 1278.54L2315.68 1011.96L1069.56 1483.13L1038.57 1588.52L2235.08 1278.54Z" fill="url(#paint3_linear_101_2)"/>
<defs>
<linearGradient id="paint0_linear_101_2" x1="982.77" y1="1173.15" x2="2538.86" y2="435.403" gradientUnits="userSpaceOnUse">
<stop stop-color="#2DB656"/>
<stop offset="1" stop-color="#74DC65"/>
</linearGradient>
<linearGradient id="paint1_linear_101_2" x1="1162.56" y1="1755.91" x2="1683.32" y2="2214.68" gradientUnits="userSpaceOnUse">
<stop offset="0.0652429" stop-color="#E3B525"/>
<stop offset="0.789675" stop-color="#FFC81B"/>
</linearGradient>
<linearGradient id="paint2_linear_101_2" x1="1621.32" y1="1197.95" x2="1850.71" y2="1749.71" gradientUnits="userSpaceOnUse">
<stop offset="0.167047" stop-color="#1D8D2B"/>
<stop offset="0.43085" stop-color="#2DA150"/>
<stop offset="0.807736" stop-color="#2BB857"/>
</linearGradient>
<linearGradient id="paint3_linear_101_2" x1="1621.32" y1="1197.95" x2="1850.71" y2="1749.71" gradientUnits="userSpaceOnUse">
<stop offset="0.0581062" stop-color="#218F2F"/>
</linearGradient>
</defs>
</svg>
